<svg version="1.1" id="Layer_1" xmlns="http://www.w3.org/2000/svg" xmlns:xlink="http://www.w3.org/1999/xlink" x="0px" y="0px" viewBox="0 0 32.57911 31.77461" style="enable-background:new 0 0 32.57911 31.77461;" xml:space="preserve">
<path d="M16.2885,0C7.2939,0,0,7.293,0,16.2905
	c0,7.1963,4.667,13.3018,11.1406,15.4561c0.81451,0.1494,1.1118-0.3535,1.1118-0.7852c0-0.3867-0.0141-1.4111-0.022-2.7705
	c-4.5312,0.9844-5.48729-2.1836-5.48729-2.1836C6.0024,24.1255,4.9345,23.6245,4.9345,23.6245
	c-1.479-1.0107,0.1119-0.9902,0.1119-0.9902c1.63471,0.1152,2.4951,1.6787,2.4951,1.6787c1.4531,2.4893,3.8125,1.7705,4.7407,1.3535
	c0.148-1.0527,0.5688-1.7705,1.0342-2.1777c-3.6172-0.4111-7.4199-1.8086-7.4199-8.0508c0-1.7783,0.6347-3.2324,1.6767-4.3711
	c-0.1675-0.4121-0.7265-2.0683,0.1597-4.311c0,0,1.3677-0.438,4.4795,1.6699c1.2993-0.3613,2.6928-0.542,4.0781-0.5483
	c1.3833,0.0063,2.7769,0.187,4.0781,0.5483c3.1099-2.1079,4.4751-1.6699,4.4751-1.6699c0.8887,2.2427,0.3296,3.8989,0.1621,4.311
	c1.044,1.1387,1.6744,2.5928,1.6744,4.3711c0,6.2578-3.8086,7.6348-7.4375,8.0381c0.5849,0.5029,1.1059,1.4971,1.1059,3.0166
	c0,2.1777-0.02,3.9346-0.02,4.4687c0,0.4356,0.2934,0.9424,1.1201,0.7833c6.4673-2.1583,11.13041-8.2598,11.13041-15.4542
	C32.57911,7.293,25.2851,0,16.2885,0z"/>
</svg>
