<?xml version="1.0" encoding="utf-8"?>
<!-- Generator: Adobe Illustrator 19.0.0, SVG Export Plug-In . SVG Version: 6.00 Build 0)  -->
<svg version="1.1" xmlns="http://www.w3.org/2000/svg" xmlns:xlink="http://www.w3.org/1999/xlink" x="0px" y="0px"
	 viewBox="0 0 154.28604 215.28673" style="enable-background:new 0 0 154.28604 215.28673;" xml:space="preserve">
<g id="Layer_1">
	<circle style="fill:#F8255A;stroke:#760C37;stroke-width:14;stroke-miterlimit:10;" cx="61.00389" cy="194.96779" r="13.31895"/>
	<g>
		<path style="fill:#760C37;" d="M134.96152,84.11281c-8.53931-5.32599-17.74659-9.00323-27.45826-11.59174
			c-16.21509-4.3219-32.78619-2.55347-49.21881-3.05762c-7.46948-0.22919-14.96436-0.40155-22.30737,1.73749
			C4.68911,80.31538-9.52213,115.68452,6.87326,143.90877c3.76117,6.47473,7.75879,12.81165,11.60498,19.23749
			c8.25543,13.7926,16.49713,27.59344,24.74115,41.39282c3.9162-2.04297,7.82458-4.10071,11.70551-6.21033
			c0.03827-0.02081,0.07556-0.04285,0.11383-0.06366c-11.87775-19.64996-23.74707-39.30536-35.70844-58.90442
			c-4.48895-7.35529-6.87909-15.08911-5.85504-23.73584c0.21069-15.97906,15.15588-32.07751,31.72656-32.85614
			c14.23279-0.66876,28.52954,0.02631,42.79797,0.11829c4.20392,0.05212,8.37091,0.362,12.38239,1.76379
			c9.05859,1.35486,17.51074,4.29688,25.06665,9.58276c11.24464,4.18958,17.34107,15.62128,15.71973,29.53363
			c-0.3042,2.61139-0.71729,5.21002-1.21875,8.80927c-6.05566-9.51422-13.5879-16.37836-23.59913-20.17419
			c-5.17944-1.87408-10.65332-1.99725-16.03052-2.69513c-3.98193,0.91608-7.96387,1.83221-11.94574,2.74829
			c-2.73755,0.71027-5.45862,1.48431-8.21155,2.12067c-7.35376,1.69989-13.18091-0.85492-16.83325-7.30817
			c-6.01074-10.62042-12.92456-14.23706-22.56604-11.80463c-9.55579,2.41083-14.15814,9.17462-14.38721,21.13898
			c-0.00641,0.3327-0.04565,0.66479-0.06952,0.99719c1.56549,12.9837,9.77643,22.81122,16.1568,33.43292
			c8.09015,13.46844,16.26123,26.88818,24.44342,40.30139c3.698-2.28241,7.35046-4.62653,10.99835-6.99139
			c-11.39679-18.70477-22.74463-37.43994-34.15112-56.13873c-2.28552-3.74677-3.86621-7.72595-4.3175-12.11285
			c-0.37439-3.63928,0.42371-6.80432,4.32837-7.97223c4.03345-1.20654,6.01819,1.3335,7.71387,4.56647
			c6.58472,12.55511,18.40283,17.79974,32.24951,14.47705c4.04236-0.96997,8.13556-1.75928,12.12628-2.90668
			c8.89429-2.55725,16.72119-0.29266,24.00659,4.88605c5.85547,4.16223,8.65113,10.33026,11.28541,16.69818
			c2.28125,5.51459,6.92651,7.98242,12.31714,7.00751c5.25635-0.95062,8.56494-4.70056,9.05859-10.39978
			c0.60352-6.96362,1.27954-13.92511,1.67554-20.90161C155.11777,105.34029,148.8331,92.76472,134.96152,84.11281z"/>
		<path style="fill:#F8255A;" d="M55.03872,198.26509c4.0473-2.20355,7.98358-4.53363,11.86834-6.93134
			c-8.18219-13.41321-16.35327-26.83295-24.44342-40.30139c-6.38037-10.6217-14.59131-20.44922-16.1568-33.43292
			c-4.2774-0.65845-8.55481-1.31683-12.83191-1.97498c-1.02374,8.64709,1.36639,16.38092,5.85535,23.73621
			C31.29165,158.95973,43.16098,178.61513,55.03872,198.26509z"/>
		<path style="fill:#E0045E;" d="M26.3068,117.59943c-4.2774-0.65842-8.55478-1.31685-12.83188-1.97495
			c0.211-15.9787,15.15616-32.07719,31.72684-32.8558c14.23273-0.66878,28.52957,0.02632,42.79739,0.11865
			c-0.10461,3.28539-1.92242,4.39568-5.06915,4.85484c-4.29437,0.62662-6.55646,3.48537-6.71106,7.96481
			c-0.15527,4.49947,1.33209,8.2868,5.98413,8.98491c4.96216,0.74464,6.45898,3.31065,6.16937,7.76248
			c-2.7356,0.71126-5.45673,1.48531-8.20966,2.12169c-7.3537,1.69991-13.18085-0.85492-16.83322-7.30817
			c-6.0108-10.62045-12.92456-14.23708-22.56604-11.80463c-9.55585,2.41084-14.15811,9.17461-14.38721,21.13898
			C26.36991,116.93497,26.3307,117.26707,26.3068,117.59943z"/>
		<path style="fill:#E0045E;" d="M125.44868,94.23356c11.24462,4.18953,17.34118,15.62126,15.7199,29.53363
			c-0.30438,2.61134-0.71741,5.21-1.21893,8.80926c-6.0556-9.51426-13.58788-16.37835-23.59985-20.17377
			C119.38227,106.34661,122.41547,100.29008,125.44868,94.23356z"/>
		<path style="fill:#F7D2D9;" d="M125.44868,94.23356c-3.0332,6.05652-6.06641,12.11305-9.09888,18.16911
			c-5.17865-1.8745-10.65247-1.9977-16.02948-2.69557c0.02063-8.35211,0.0412-16.70421,0.06177-25.05632
			C109.4408,86.00565,117.89277,88.94765,125.44868,94.23356z M109.40772,97.63544
			c-0.01093-1.53757,0.02045-3.21638-2.16913-3.10252c-1.81512,0.09441-1.83954,1.57204-1.83264,2.94643
			c0.00769,1.54454-0.00739,3.22279,2.16803,3.11197C109.3802,100.49931,109.41352,99.01289,109.40772,97.63544z"/>
		<path style="fill:#FCFBFC;" d="M100.38209,84.65078c-0.02057,8.35211-0.04114,16.70421-0.06177,25.05632
			c-3.98206,0.91611-7.96399,1.8322-11.9469,2.74779c0.28864-4.45233-1.20819-7.01834-6.17035-7.76299
			c-4.65204-0.6981-6.1394-4.48544-5.98413-8.98491c0.1546-4.47945,2.41669-7.3382,6.71106-7.96481
			c3.14673-0.45917,4.96454-1.56946,5.06915-4.85484C92.20356,82.93908,96.37061,83.24897,100.38209,84.65078z M90.55787,95.0323
			c-0.20099-2.51578-2.13806-4.36299-5.36981-4.36774c-3.32745-0.00488-5.2276,2.05389-5.22675,5.36572
			c0.00085,3.5685,2.04254,5.6747,5.60876,5.46269C88.79218,101.30145,90.63783,99.31228,90.55787,95.0323z"/>
		<path style="fill:#760C37;" d="M109.40565,97.63645c0.00787,1.37643-0.02545,2.86285-1.83167,2.95486
			c-2.17542,0.11082-2.16034-1.56743-2.16803-3.11197c-0.0069-1.37439,0.01752-2.85202,1.83264-2.94643
			C109.42817,94.41906,109.3968,96.09788,109.40565,97.63645z"/>
		<path style="fill:#760C37;" d="M90.55787,95.0323c0.07996,4.27998-1.76569,6.26915-4.98779,6.46068
			c-3.56622,0.21201-5.60791-1.8942-5.60876-5.46269c-0.00085-3.31183,1.89929-5.37061,5.22675-5.36572
			C88.41981,90.6693,90.35688,92.51652,90.55787,95.0323z"/>
	</g>
	<circle style="fill:#F8255A;" cx="61.25389" cy="195.10338" r="6.95833"/>
</g>
<g id="Layer_2">
	<g id="Layer_3">
		<path style="fill:#760C37;" d="M93.90618,70.33334H44.32284c-1.93299,0-3.5-1.567-3.5-3.49999v-0.00001c0-1.933,1.567-3.5,3.5-3.5
			h49.58334c1.93299,0,3.49999,1.567,3.49999,3.5v0.00001C97.40617,68.76633,95.83917,70.33334,93.90618,70.33334z"/>
		<path style="fill:#760C37;" d="M89.82133,56.27005H48.40768V5.81904C48.40768,2.60527,51.01295,0,54.22672,0l29.77461,0
			c3.21429,0,5.82,2.6057,5.82,5.82V56.27005z"/>
		<rect x="48.40768" y="56.27005" style="fill:#E0045E;" width="41.41365" height="7.06328"/>
	</g>
</g>
</svg>
