<svg fill="white" viewBox="0 0 54.25219 60" xmlns="http://www.w3.org/2000/svg">
	<path d="M25.55997,38.77096l-6.5717-11.38251c-0.49938-0.86495-0.20303-1.97095,0.66192-2.47033l6.5717-3.79417c0.55952-0.32304,1.24888-0.32304,1.80841,0l6.5717,3.79417c0.86495,0.49938,1.1613,1.60538,0.66192,2.47033l-6.5717,11.38251C27.99617,39.97656,26.25603,39.97656,25.55997,38.77096z"/>
	<path d="M25.07541,48.37249L23.267,45.24025c-0.92509-1.60231-3.37453-0.94598-3.37453,0.90421v11.00037c0,0.64608,0.34468,1.24309,0.90421,1.56613l1.80841,1.04407c1.2056,0.69604,2.7126-0.17403,2.7126-1.56613v-8.9122C25.31769,48.95926,25.23413,48.64741,25.07541,48.37249z"/>
	<path d="M31.6471,59.75503l1.80841-1.04407c0.55953-0.32304,0.90421-0.92005,0.90421-1.56613V46.14446c0-1.85019-2.44944-2.50651-3.37453-0.90421l-1.80841,3.13224c-0.15872,0.27491-0.24228,0.58676-0.24228,0.90421v8.9122C28.9345,59.581,30.4415,60.45107,31.6471,59.75503z"/>
	<path d="M26.22189,0.24228L0.9042,14.85944C0.34468,15.18249,0,15.77949,0,16.42557V45.6599c0,0.64608,0.34468,1.24309,0.90421,1.56613l12.65884,7.30856c1.2056,0.69605,2.71261-0.17402,2.71261-1.56613V40.4395c0-1.39211-1.507-2.26218-2.71261-1.56613l-1.80841,1.04408c-1.2056,0.69605-2.71261-0.17402-2.71261-1.56613V21.64599c0-0.64608,0.34468-1.24309,0.9042-1.56613l16.27566-9.39675c0.55952-0.32304,1.24888-0.32304,1.8084,0l16.27566,9.39675c0.55952,0.32304,0.9042,0.92004,0.9042,1.56613v16.70534c0,1.39211-1.507,2.26218-2.7126,1.56613l-1.80841-1.04408c-1.2056-0.69605-2.7126,0.17402-2.7126,1.56613v12.52896c0,1.39211,1.507,2.26218,2.7126,1.56613l12.65885-7.30856c0.55952-0.32304,0.90421-0.92005,0.90421-1.56613V16.42557c0-0.64608-0.34468-1.24309-0.90421-1.56613L28.0303,0.24228C27.47078-0.08076,26.78142-0.08076,26.22189,0.24228z"/>
</svg>