<?xml version="1.0" encoding="utf-8"?>
<!-- Generator: Adobe Illustrator 19.0.0, SVG Export Plug-In . SVG Version: 6.00 Build 0)  -->
<svg version="1.1" xmlns="http://www.w3.org/2000/svg" xmlns:xlink="http://www.w3.org/1999/xlink" x="0px" y="0px"
	 viewBox="0 0 128 160" style="enable-background:new 0 0 128 160;" xml:space="preserve">
<g id="Layer_1">
	<path id="XMLID_5_" style="fill:#FFDF57;" d="M112,32h0.00006C120.83655,32,128,24.83655,128,16s-7.16345-16-16-16H16
		C7.16345,0,0,7.16345,0,16s7.16345,16,15.99994,16H16C7.16345,32,0,39.16345,0,48v104c0,4.41827,3.58173,8,8,8h112
		c4.41827,0,8-3.58173,8-8V48C128,39.16345,120.83655,32,112,32z"/>
</g>
<g id="Layer_2">
	
		<line id="XMLID_3_" style="fill:none;stroke:#FFC100;stroke-width:8;stroke-linecap:round;stroke-miterlimit:10;" x1="107.31349" y1="52.6865" x2="20.68649" y2="139.31351"/>
	
		<line id="XMLID_4_" style="fill:none;stroke:#FFC100;stroke-width:8;stroke-linecap:round;stroke-miterlimit:10;" x1="112" y1="80" x2="48" y2="144"/>
	
		<line id="XMLID_8_" style="fill:none;stroke:#FFC100;stroke-width:8;stroke-linecap:round;stroke-miterlimit:10;" x1="96" y1="32" x2="16" y2="112"/>
	
		<line id="XMLID_10_" style="fill:none;stroke:#FFC100;stroke-width:8;stroke-linecap:round;stroke-miterlimit:10;" x1="112" y1="112" x2="80" y2="144"/>
	
		<line id="XMLID_12_" style="fill:none;stroke:#FFC100;stroke-width:8;stroke-linecap:round;stroke-miterlimit:10;" x1="80" y1="16" x2="16" y2="80"/>
	
		<line id="XMLID_1_" style="fill:none;stroke:#FFC100;stroke-width:8;stroke-linecap:round;stroke-miterlimit:10;" x1="48" y1="16" x2="32" y2="32"/>
</g>
</svg>
