<?xml version="1.0" encoding="utf-8"?>
<!-- Generator: Adobe Illustrator 19.0.0, SVG Export Plug-In . SVG Version: 6.00 Build 0)  -->
<svg version="1.1" xmlns="http://www.w3.org/2000/svg" xmlns:xlink="http://www.w3.org/1999/xlink" x="0px" y="0px"
	 viewBox="0 0 160 144" style="enable-background:new 0 0 160 144;" xml:space="preserve">
<g id="Layer_1">
</g>
<g id="Layer_2">
	<path id="XMLID_31_" d="M112,0C99.70398,0,88.49268,4.62891,80,12.23212C71.50732,4.62891,60.29602,0,48,0
		C21.49036,0,0,21.4903,0,48c0,14.21362,6.1828,26.97888,16,35.76788V136c0,4.41827,3.58173,8,8,8h112c4.41827,0,8-3.58173,8-8
		V83.76788c9.8172-8.789,16-21.55426,16-35.76788C160,21.4903,138.50964,0,112,0z M109.17139,13.17139
		c1.56201-1.56104,4.09619-1.56201,5.65674,0c1.5625,1.5625,1.5625,4.09473,0,5.65723L34.8291,98.82813
		C34.04785,99.60938,33.02441,100,32.00049,100s-2.04736-0.39063-2.82861-1.17188c-1.56201-1.56152-1.56201-4.09473,0-5.65625
		L109.17139,13.17139z M16,52c-1.02393,0-2.04736-0.39063-2.82861-1.17139c-1.56201-1.5625-1.56201-4.09473,0-5.65723
		l31.93213-31.93213c1.5625-1.56152,4.09473-1.56152,5.65723,0c1.56201,1.5625,1.56201,4.09473,0,5.65723L18.82861,50.82861
		C18.04736,51.60938,17.02393,52,16,52z M22.66406,73.33594c-1.56201-1.5625-1.56201-4.09473,0-5.65723L67.67627,22.6665
		c1.5625-1.56152,4.09473-1.56152,5.65723,0c1.56201,1.5625,1.56201,4.09473,0,5.65723L28.32129,73.33594
		c-0.78125,0.78076-1.80469,1.17139-2.82861,1.17139S23.44531,74.1167,22.66406,73.33594z M32,132
		c-1.02393,0-2.04736-0.39063-2.82861-1.17188c-1.56201-1.56152-1.56201-4.09473,0-5.65625L131.67676,22.6665
		c1.56055-1.56152,4.0957-1.56152,5.65625,0c1.5625,1.5625,1.5625,4.09473,0,5.65723L34.82861,130.82813
		C34.04736,131.60938,33.02393,132,32,132z M130.82813,98.82813l-31.99951,32C98.04736,131.60938,97.02393,132,96,132
		s-2.04736-0.39063-2.82861-1.17188c-1.56201-1.56152-1.56201-4.09473,0-5.65625l32.00049-32
		c1.56055-1.5625,4.0957-1.5625,5.65625,0C132.39063,94.7334,132.39063,97.2666,130.82813,98.82813z M66.82861,130.82813
		C66.04736,131.60938,65.02393,132,64,132s-2.04736-0.39063-2.82861-1.17188c-1.56201-1.56152-1.56201-4.09473,0-5.65625
		l80.00049-80.00049c1.56055-1.56152,4.0957-1.56152,5.65625,0c1.5625,1.5625,1.5625,4.09473,0,5.65723L66.82861,130.82813z"/>
</g>
</svg>
