<?xml version="1.0" encoding="utf-8"?>
<!-- Generator: Adobe Illustrator 19.0.0, SVG Export Plug-In . SVG Version: 6.00 Build 0)  -->
<svg version="1.1" xmlns="http://www.w3.org/2000/svg" xmlns:xlink="http://www.w3.org/1999/xlink" x="0px" y="0px"
	 viewBox="0 0 128 160" style="enable-background:new 0 0 128 160;" xml:space="preserve">
<g id="Layer_1">
</g>
<g id="Layer_2">
	<path id="XMLID_31_" d="M112,32h0.00006C120.83655,32,128,24.83655,128,16s-7.16345-16-16-16H16C7.16345,0,0,7.16345,0,16
		s7.16345,16,15.99994,16H16C7.16345,32,0,39.16345,0,48v104c0,4.41827,3.58173,8,8,8h112c4.41827,0,8-3.58173,8-8V48
		C128,39.16345,120.83655,32,112,32z M29.17139,29.17139l16-16c1.5625-1.56152,4.09473-1.56152,5.65723,0
		c1.56201,1.5625,1.56201,4.09473,0,5.65723l-16,16C34.04736,35.60938,33.02393,36,32,36s-2.04736-0.39063-2.82861-1.17139
		C27.60938,33.26611,27.60938,30.73389,29.17139,29.17139z M13.17139,77.17139l64-64c1.5625-1.56152,4.09473-1.56152,5.65723,0
		c1.56201,1.5625,1.56201,4.09473,0,5.65723l-64,64C18.04736,83.60938,17.02393,84,16,84s-2.04736-0.39063-2.82861-1.17139
		C11.60938,81.26611,11.60938,78.73389,13.17139,77.17139z M13.17139,114.82813c-1.56201-1.56201-1.56201-4.09424,0-5.65674l80-80
		c1.5625-1.56152,4.09473-1.56152,5.65723,0c1.56201,1.5625,1.56201,4.09473,0,5.65723l-80,79.99951
		C18.04736,115.60938,17.02393,116,16,116S13.95264,115.60938,13.17139,114.82813z M20.68652,143.31348
		c-1.02393,0-2.04736-0.39063-2.82861-1.17188c-1.56201-1.56152-1.56201-4.09473,0-5.65625l86.62695-86.62744
		c1.5625-1.56152,4.09473-1.56152,5.65723,0c1.56201,1.5625,1.56201,4.09473,0,5.65723L23.51514,142.1416
		C22.73389,142.92285,21.71045,143.31348,20.68652,143.31348z M114.82861,114.82813l-32,32C82.04736,147.60938,81.02393,148,80,148
		s-2.04736-0.39063-2.82861-1.17188c-1.56201-1.56152-1.56201-4.09473,0-5.65625l32-32.00049
		c1.5625-1.56152,4.09473-1.56152,5.65723,0C116.39063,110.73389,116.39063,113.26611,114.82861,114.82813z M114.82861,82.82861
		l-64,63.99951C50.04736,147.60938,49.02393,148,48,148s-2.04736-0.39063-2.82861-1.17188
		c-1.56201-1.56152-1.56201-4.09473,0-5.65625l64-64.00049c1.5625-1.56152,4.09473-1.56152,5.65723,0
		C116.39063,78.73389,116.39063,81.26611,114.82861,82.82861z"/>
</g>
</svg>
