<?xml version="1.0" encoding="utf-8"?>
<!-- Generator: Adobe Illustrator 19.0.0, SVG Export Plug-In . SVG Version: 6.00 Build 0)  -->
<svg version="1.1" id="Layer_1" xmlns="http://www.w3.org/2000/svg" xmlns:xlink="http://www.w3.org/1999/xlink" x="0px" y="0px"
	 viewBox="-399 176.8 160 208.3" style="enable-background:new -399 176.8 160 208.3;" xml:space="preserve">
<style type="text/css">
	.st0{fill:#00C3FF;}
	.st1{fill:#5AD0FF;}
	.st2{fill:none;stroke:#00C3FF;stroke-width:8;stroke-linecap:round;stroke-miterlimit:10;}
</style>
<g id="Layer_3">
	<g id="XMLID_1_">
		<path id="XMLID_51_" class="st0" d="M-335.1,381c-1.8,0-3.4-1.2-3.9-3l-16-64c-0.3-1.2,0-2.5,0.7-3.4s1.9-1.5,3.2-1.5h32
			c1.2,0,2.4,0.6,3.2,1.5s1,2.2,0.7,3.4l-16,64C-331.7,379.8-333.3,381-335.1,381z"/>
		<path id="XMLID_48_" class="st0" d="M-319.1,313l-16,64l-16-64H-319.1 M-319.1,305h-32c-2.5,0-4.8,1.1-6.3,3.1
			c-1.5,1.9-2.1,4.5-1.5,6.9l16,64c0.9,3.6,4.1,6.1,7.8,6.1s6.9-2.5,7.8-6.1l16-64c0.6-2.4,0.1-4.9-1.5-6.9
			C-314.3,306.1-316.7,305-319.1,305L-319.1,305z"/>
	</g>
	<g id="XMLID_18_">
		<path id="XMLID_46_" class="st0" d="M-359.1,365c-1.7,0-3.3-1.1-3.8-2.7l-16-48c-0.4-1.2-0.2-2.6,0.5-3.6c0.8-1,2-1.7,3.2-1.7h32
			c1.3,0,2.5,0.6,3.2,1.7c0.8,1,1,2.4,0.5,3.6l-16,48C-355.9,363.9-357.4,365-359.1,365z"/>
		<path id="XMLID_43_" class="st0" d="M-343.1,313l-16,48l-16-48H-343.1 M-343.1,305h-32c-2.6,0-5,1.2-6.5,3.3
			c-1.5,2.1-1.9,4.8-1.1,7.2l16,48c1.1,3.3,4.1,5.5,7.6,5.5s6.5-2.2,7.6-5.5l16-48c0.8-2.4,0.4-5.1-1.1-7.2
			C-338.1,306.2-340.5,305-343.1,305L-343.1,305z"/>
	</g>
	<g id="XMLID_22_">
		<path id="XMLID_47_" class="st0" d="M-279.1,349c-1.5,0-2.9-0.9-3.6-2.2l-16-32c-0.6-1.2-0.6-2.7,0.2-3.9c0.7-1.2,2-1.9,3.4-1.9
			h32c1.4,0,2.7,0.7,3.4,1.9c0.7,1.2,0.8,2.7,0.2,3.9l-16,32C-276.2,348.1-277.6,349-279.1,349z"/>
		<path id="XMLID_40_" class="st0" d="M-263.1,313l-16,32l-16-32H-263.1 M-263.1,305h-32c-2.8,0-5.3,1.4-6.8,3.8
			c-1.5,2.4-1.6,5.3-0.4,7.8l16,32c1.4,2.7,4.1,4.4,7.2,4.4s5.8-1.7,7.2-4.4l16-32c1.2-2.5,1.1-5.4-0.4-7.8
			C-257.8,306.4-260.3,305-263.1,305L-263.1,305z"/>
	</g>
</g>
<g id="Layer_1_1_">
	<g id="XMLID_11_">
		<path id="XMLID_27_" class="st1" d="M-239,224.8c0-26.5-21.4-48-47.9-48c-12.3,0-23.5,4.6-32,12.2c-8.5-7.6-19.7-12.2-32-12.2
			c-26.5,0-48.1,21.5-48.1,48c0,14.2,6.9,27,15.9,35.8v52.2c0,4.4,3.8,8.3,8.3,8.3h112c4.4,0,7.7-3.8,7.7-8.3v-52.2
			C-245.1,251.7-239,239-239,224.8z"/>
	</g>
</g>
<g id="Layer_2">
	<line id="XMLID_7_" class="st2" x1="-367.1" y1="305" x2="-264.6" y2="202.5"/>
	<line id="XMLID_6_" class="st2" x1="-335.1" y1="305" x2="-255.1" y2="225"/>
	<line id="XMLID_4_" class="st2" x1="-303.1" y1="305" x2="-271.1" y2="273"/>
	<line id="XMLID_9_" class="st2" x1="-373.6" y1="247.5" x2="-328.6" y2="202.5"/>
	<line id="XMLID_8_" class="st2" x1="-367.1" y1="273" x2="-287.1" y2="193"/>
	<line id="XMLID_5_" class="st2" x1="-383.1" y1="225" x2="-351.2" y2="193.1"/>
</g>
</svg>
