<?xml version="1.0" encoding="utf-8"?>
<!-- Generator: Adobe Illustrator 19.0.0, SVG Export Plug-In . SVG Version: 6.00 Build 0)  -->
<svg version="1.1" xmlns="http://www.w3.org/2000/svg" xmlns:xlink="http://www.w3.org/1999/xlink" x="0px" y="0px"
	 viewBox="0 0 160 144" style="enable-background:new 0 0 160 144;" xml:space="preserve">
<g id="Layer_1">
	<path id="XMLID_24_" style="fill:#FFDF57;" d="M160,48c0-26.5097-21.49036-48-48-48C99.70398,0,88.49268,4.62891,80,12.23212
		C71.50732,4.62891,60.29602,0,48,0C21.49036,0,0,21.4903,0,48c0,14.21362,6.1828,26.97888,16,35.76788V136c0,4.41827,3.58173,8,8,8
		h112c4.41827,0,8-3.58173,8-8V83.76788C153.8172,74.97888,160,62.21362,160,48z"/>
</g>
<g id="Layer_2">
	
		<line id="XMLID_7_" style="fill:none;stroke:#FFC100;stroke-width:8;stroke-linecap:round;stroke-miterlimit:10;" x1="32.00006" y1="127.99994" x2="134.50478" y2="25.49522"/>
	
		<line id="XMLID_6_" style="fill:none;stroke:#FFC100;stroke-width:8;stroke-linecap:round;stroke-miterlimit:10;" x1="63.99984" y1="128.00015" x2="144" y2="48"/>
	
		<line id="XMLID_4_" style="fill:none;stroke:#FFC100;stroke-width:8;stroke-linecap:round;stroke-miterlimit:10;" x1="96" y1="128" x2="128" y2="96"/>
	
		<line id="XMLID_9_" style="fill:none;stroke:#FFC100;stroke-width:8;stroke-linecap:round;stroke-miterlimit:10;" x1="25.49245" y1="70.50755" x2="70.50478" y2="25.49522"/>
	
		<line id="XMLID_8_" style="fill:none;stroke:#FFC100;stroke-width:8;stroke-linecap:round;stroke-miterlimit:10;" x1="32.00025" y1="95.99976" x2="112" y2="16"/>
	
		<line id="XMLID_5_" style="fill:none;stroke:#FFC100;stroke-width:8;stroke-linecap:round;stroke-miterlimit:10;" x1="16" y1="48" x2="47.93206" y2="16.06794"/>
</g>
</svg>
